<?xml version="1.0" standalone="no"?>
<!DOCTYPE svg PUBLIC "-//W3C//DTD SVG 20010904//EN"
 "http://www.w3.org/TR/2001/REC-SVG-20010904/DTD/svg10.dtd">
<svg version="1.0" xmlns="http://www.w3.org/2000/svg"
 width="500.000000pt" height="500.000000pt" viewBox="0 0 500.000000 500.000000"
 preserveAspectRatio="xMidYMid meet">
<metadata>
Created by potrace 1.11, written by Peter Selinger 2001-2013
</metadata>
<g transform="translate(0.000000,500.000000) scale(0.100000,-0.100000)"
fill="#000000" stroke="none">
<path d="M3610 4225 c-194 -53 -414 -265 -539 -520 -87 -178 -208 -534 -275
-814 -14 -58 -31 -108 -38 -113 -7 -5 -74 -41 -148 -80 -130 -69 -245 -135
-302 -172 l-27 -18 7 74 c4 40 6 152 6 248 -1 259 -44 444 -141 609 -78 130
-219 254 -370 322 -278 127 -582 80 -778 -119 -202 -206 -237 -517 -88 -771
72 -123 244 -283 317 -295 74 -13 141 55 133 134 -5 48 2 40 -147 162 -189
156 -240 399 -122 587 153 247 497 291 785 101 185 -122 279 -304 323 -625 8
-53 7 -357 0 -390 -2 -11 -5 -34 -5 -50 -1 -27 -10 -36 -73 -75 -130 -79 -420
-271 -543 -359 -181 -129 -453 -350 -517 -420 -118 -127 -179 -267 -184 -418
-5 -145 35 -251 131 -344 193 -188 453 -149 694 104 145 152 218 276 314 537
81 220 130 379 176 569 17 69 36 128 43 133 7 4 65 36 128 70 166 88 217 116
288 160 l63 39 -7 -68 c-10 -89 -11 -339 -2 -428 25 -245 124 -466 266 -596
162 -149 364 -233 557 -231 94 1 127 6 209 33 176 59 330 208 394 381 28 76
33 98 37 193 8 198 -76 380 -250 543 -86 81 -146 114 -190 106 -68 -12 -111
-69 -102 -136 6 -47 22 -65 102 -123 191 -136 274 -346 209 -531 -30 -85 -54
-123 -122 -186 -104 -95 -202 -130 -356 -124 -257 10 -482 163 -586 400 -26
57 -66 201 -74 261 -4 28 -10 66 -13 85 -6 36 -5 336 1 380 2 14 4 39 5 56 1
29 10 37 104 93 275 166 581 381 832 587 225 183 303 279 355 430 28 84 36
226 16 301 -32 121 -122 230 -235 286 -54 26 -78 32 -140 33 -42 1 -96 -4
-121 -11z m203 -105 c49 -23 104 -71 136 -117 99 -144 57 -358 -102 -521 -60
-61 -274 -216 -502 -362 -151 -97 -486 -293 -490 -288 -5 6 56 246 91 356 49
159 149 415 191 492 129 237 350 435 513 462 47 8 121 -2 163 -22z m-1679
-2012 c-60 -264 -181 -616 -267 -778 -182 -347 -487 -546 -683 -448 -176 88
-235 290 -140 483 69 140 133 197 499 442 78 52 171 113 207 134 36 22 72 44
80 50 35 22 306 177 312 178 3 1 0 -27 -8 -61z"/>
</g>
</svg>
